# xmcd
# 
# Track frame offsets:
#     150
#     18441
#     33227
#     49143
# 
# Disc length: 869
# 
# Revision: 0
# Processed by: cddbd v1.5.2PL0 Copyright (c) Steve Scherf et al.
# Submitted via: fre:ac v1.0.17
# 
DISCID=28036304
DTITLE=Carly-Jo - Carly-Jo Sampler 2013 
DYEAR=2013
DGENRE=Country
TTITLE0=Miss You Like This
TTITLE1=Turn On The Oven 
TTITLE2=Flower
TTITLE3=Lazarus
EXTD=
EXTT0=
EXTT1=
EXTT2=
EXTT3=
PLAYORDER=
